<svg width="16" height="16" viewBox="0 0 16 16" fill="none" xmlns="http://www.w3.org/2000/svg">
<path d="M14 7.04492L14.5 7.04492V7.04492H14ZM5.91113 11.7744L6.0602 11.2972L5.75917 11.2031L5.54464 11.4343L5.91113 11.7744ZM3.8457 14H3.3457V15.2738L4.2122 14.3401L3.8457 14ZM3.8457 10.6826H4.3457V10.4437L4.15982 10.2936L3.8457 10.6826ZM2 7.04492H1.5V7.04492L2 7.04492ZM8 2V2.5C11.1223 2.5 13.5 4.61256 13.5 7.04492H14H14.5C14.5 3.90484 11.5051 1.5 8 1.5V2ZM14 7.04492L13.5 7.04492C13.5 9.47727 11.1223 11.5898 8 11.5898V12.0898V12.5898C11.5051 12.5898 14.5 10.185 14.5 7.04492L14 7.04492ZM8 12.0898V11.5898C7.31622 11.5898 6.66293 11.4854 6.0602 11.2972L5.91113 11.7744L5.76206 12.2517C6.46053 12.4698 7.21431 12.5898 8 12.5898V12.0898ZM5.91113 11.7744L5.54464 11.4343L3.47921 13.6599L3.8457 14L4.2122 14.3401L6.27763 12.1145L5.91113 11.7744ZM3.8457 14H4.3457V10.6826H3.8457H3.3457V14H3.8457ZM3.8457 10.6826L4.15982 10.2936C3.12114 9.45489 2.50001 8.30064 2.5 7.04492L2 7.04492L1.5 7.04492C1.50001 8.64925 2.29645 10.0743 3.53158 11.0716L3.8457 10.6826ZM2 7.04492H2.5C2.5 4.61256 4.87771 2.5 8 2.5V2V1.5C4.49488 1.5 1.5 3.90484 1.5 7.04492H2Z" fill="#808080"/>
</svg>
