<svg width="25" height="24" viewBox="0 0 25 24" fill="none" xmlns="http://www.w3.org/2000/svg">
<g id="icon_home">
<path id="Union" d="M12.127 3.1303C12.3456 2.95664 12.6555 2.95649 12.8741 3.1303L23.2735 11.4076C23.7175 11.7614 23.4673 12.477 22.8995 12.477H20.4834L20.0694 21.4291C20.0546 21.7494 19.7904 22.0014 19.4698 22.0014H15.1006C14.7694 22.0014 14.5012 21.733 14.501 21.4018V17.2797C14.5008 16.9485 14.2317 16.6801 13.9004 16.6801H11.1036C10.7723 16.6801 10.5042 16.9486 10.5039 17.2797V21.4018C10.5038 21.733 10.2346 22.0014 9.90336 22.0014H5.53422C5.21375 22.0013 4.95039 21.7493 4.93559 21.4291L4.52153 12.477H2.10063C1.53303 12.4766 1.28334 11.7612 1.72758 11.4076L12.127 3.1303Z" fill="#C3C3C3"/>
</g>
</svg>
