<svg width="13" height="12" viewBox="0 0 13 12" fill="none" xmlns="http://www.w3.org/2000/svg">
<mask id="path-1-inside-1_4874_2452" fill="white">
<rect y="4" width="3" height="8" rx="0.6"/>
</mask>
<rect y="4" width="3" height="8" rx="0.6" fill="#808080" stroke="#808080" stroke-width="2" mask="url(#path-1-inside-1_4874_2452)"/>
<path d="M6.80469 0.524414C7.48447 0.586426 7.93681 0.761336 8.23535 0.972656C8.52868 1.18032 8.70075 1.44106 8.79395 1.72852C8.98892 2.33021 8.84407 3.07635 8.60547 3.61621L8.33691 4.22266L8.99414 4.31348L10.6309 4.54004C11.4825 4.65801 12.0495 5.4605 11.9033 6.28516L11.8643 6.4502L10.3975 11.4287C10.3849 11.4709 10.3458 11.4998 10.3018 11.5H4.59961C4.54469 11.4998 4.50021 11.4553 4.5 11.4004V4.61719C4.50005 4.60366 4.50259 4.59032 4.50781 4.57812L4.53027 4.5459L6.41602 2.71777C6.62965 2.5106 6.75 2.22533 6.75 1.92773V0.599609C6.7501 0.570914 6.76212 0.54904 6.77539 0.536133C6.7817 0.530012 6.78738 0.526736 6.79102 0.525391L6.80469 0.524414Z" stroke="#808080"/>
</svg>
