<svg width="25" height="24" viewBox="0 0 25 24" fill="none" xmlns="http://www.w3.org/2000/svg">
<g id="icon_notice">
<path id="Union" d="M21.5 4C22.0523 4 22.5 4.44772 22.5 5V16.5762C22.5 17.1285 22.0523 17.5762 21.5 17.5762H11.916L7.90527 20.9102C7.64472 21.1262 7.25023 20.9411 7.25 20.6025V17.5762H3.5C2.94772 17.5762 2.5 17.1285 2.5 16.5762V5C2.5 4.44772 2.94772 4 3.5 4H21.5ZM8.5 9.81836C7.94772 9.81836 7.50002 10.2525 7.5 10.7881C7.5 11.3237 7.94772 11.7578 8.5 11.7578C9.05228 11.7578 9.5 11.3237 9.5 10.7881C9.49998 10.2525 9.05228 9.81836 8.5 9.81836ZM12.5 9.81836C11.9477 9.81836 11.5 10.2525 11.5 10.7881C11.5 11.3237 11.9477 11.7578 12.5 11.7578C13.0523 11.7578 13.5 11.3237 13.5 10.7881C13.5 10.2525 13.0523 9.81836 12.5 9.81836ZM16.5 9.81836C15.9477 9.81836 15.5 10.2525 15.5 10.7881C15.5 11.3237 15.9477 11.7578 16.5 11.7578C17.0523 11.7578 17.5 11.3237 17.5 10.7881C17.5 10.2525 17.0523 9.81836 16.5 9.81836Z" fill="#292A32"/>
</g>
</svg>
