<svg width="25" height="24" viewBox="0 0 25 24" fill="none" xmlns="http://www.w3.org/2000/svg">
<g id="icon_rate">
<path id="Star 2" d="M11.9552 2.1812C12.1696 1.71628 12.8304 1.71628 13.0448 2.1812L15.4628 7.42341C15.5502 7.6129 15.7298 7.74337 15.937 7.76793L21.6699 8.44766C22.1783 8.50794 22.3825 9.13637 22.0066 9.48399L17.7682 13.4036C17.615 13.5453 17.5464 13.7564 17.587 13.961L18.7121 19.6233C18.8119 20.1255 18.2773 20.5139 17.8306 20.2638L12.7931 17.444C12.611 17.3421 12.389 17.3421 12.2069 17.444L7.16943 20.2638C6.72267 20.5139 6.18809 20.1255 6.28787 19.6233L7.41297 13.961C7.45363 13.7564 7.38504 13.5453 7.23184 13.4036L2.9934 9.48399C2.6175 9.13637 2.82169 8.50794 3.33013 8.44766L9.06298 7.76793C9.27019 7.74337 9.44976 7.6129 9.53717 7.42342L11.9552 2.1812Z" fill="#C3C3C3"/>
</g>
</svg>
