<svg width="28" height="28" viewBox="0 0 28 28" fill="none" xmlns="http://www.w3.org/2000/svg">
<path d="M14 11.8C13.132 11.8 12.2996 12.1371 11.6858 12.7373C11.0721 13.3374 10.7273 14.1513 10.7273 15C10.7273 15.8487 11.0721 16.6626 11.6858 17.2627C12.2996 17.8629 13.132 18.2 14 18.2C14.868 18.2 15.7004 17.8629 16.3142 17.2627C16.9279 16.6626 17.2727 15.8487 17.2727 15C17.2727 14.1513 16.9279 13.3374 16.3142 12.7373C15.7004 12.1371 14.868 11.8 14 11.8ZM14 20.3333C12.5534 20.3333 11.166 19.7714 10.1431 18.7712C9.12013 17.771 8.54545 16.4145 8.54545 15C8.54545 13.5855 9.12013 12.229 10.1431 11.2288C11.166 10.2286 12.5534 9.66667 14 9.66667C15.4466 9.66667 16.834 10.2286 17.8569 11.2288C18.8799 12.229 19.4545 13.5855 19.4545 15C19.4545 16.4145 18.8799 17.771 17.8569 18.7712C16.834 19.7714 15.4466 20.3333 14 20.3333ZM14 7C8.54545 7 3.88727 10.3173 2 15C3.88727 19.6827 8.54545 23 14 23C19.4545 23 24.1127 19.6827 26 15C24.1127 10.3173 19.4545 7 14 7Z" fill="#818181"/>
</svg>
