<svg width="28" height="28" viewBox="0 0 28 28" fill="none" xmlns="http://www.w3.org/2000/svg">
<path d="M5.5 12C6.88071 12 8 13.1193 8 14.5C8 15.8807 6.88071 17 5.5 17C4.11929 17 3 15.8807 3 14.5C3 13.1193 4.11929 12 5.5 12ZM13.9619 12C15.3424 12.0003 16.4619 13.1195 16.4619 14.5C16.4619 15.8805 15.3424 16.9997 13.9619 17C12.5812 17 11.4619 15.8807 11.4619 14.5C11.4619 13.1193 12.5812 12 13.9619 12ZM22.4229 12C23.8036 12 24.9229 13.1193 24.9229 14.5C24.9229 15.8807 23.8036 17 22.4229 17C21.0423 16.9999 19.9229 15.8806 19.9229 14.5C19.9229 13.1194 21.0423 12.0001 22.4229 12Z" fill="#818181"/>
</svg>
