<svg width="24" height="24" viewBox="0 0 24 24" fill="none" xmlns="http://www.w3.org/2000/svg">
<path d="M9.66667 12.5002C9.66667 13.2001 9.36816 13.8713 8.8368 14.3662C8.30545 14.8611 7.58478 15.1391 6.83333 15.1391C6.08189 15.1391 5.36122 14.8611 4.82986 14.3662C4.29851 13.8713 4 13.2001 4 12.5002C4 11.8003 4.29851 11.1291 4.82986 10.6342C5.36122 10.1394 6.08189 9.86133 6.83333 9.86133C7.58478 9.86133 8.30545 10.1394 8.8368 10.6342C9.36816 11.1291 9.66667 11.8003 9.66667 12.5002Z" stroke="white" stroke-width="1.5"/>
<path d="M15.3327 6.69531L9.66602 10.3898M15.3327 18.3064L9.66602 14.612" stroke="white" stroke-width="1.5" stroke-linecap="round"/>
<path d="M20.9997 19.3611C20.9997 20.061 20.7012 20.7322 20.1698 21.2271C19.6385 21.722 18.9178 22 18.1663 22C17.4149 22 16.6942 21.722 16.1629 21.2271C15.6315 20.7322 15.333 20.061 15.333 19.3611C15.333 18.6612 15.6315 17.99 16.1629 17.4951C16.6942 17.0002 17.4149 16.7222 18.1663 16.7222C18.9178 16.7222 19.6385 17.0002 20.1698 17.4951C20.7012 17.99 20.9997 18.6612 20.9997 19.3611ZM20.9997 5.63889C20.9997 6.33877 20.7012 7.00998 20.1698 7.50487C19.6385 7.99975 18.9178 8.27778 18.1663 8.27778C17.4149 8.27778 16.6942 7.99975 16.1629 7.50487C15.6315 7.00998 15.333 6.33877 15.333 5.63889C15.333 4.93901 15.6315 4.2678 16.1629 3.77291C16.6942 3.27802 17.4149 3 18.1663 3C18.9178 3 19.6385 3.27802 20.1698 3.77291C20.7012 4.2678 20.9997 4.93901 20.9997 5.63889Z" stroke="white" stroke-width="1.5"/>
</svg>
